HIERARCHY
ROOT Hips
{
	OFFSET 0.00000 0.00000 0.00000
	CHANNELS 6 Xposition Yposition Zposition Zrotation Yrotation Xrotation 
	JOINT LHipJoint
	{
		OFFSET 0 0 0
		CHANNELS 3 Zrotation Yrotation Xrotation
		JOINT LeftHip
		{
			OFFSET 1.27966 -1.91611 0.81506
			CHANNELS 3 Zrotation Yrotation Xrotation
			JOINT LeftKnee
			{
				OFFSET 2.49511 -6.85528 0.00000
				CHANNELS 3 Zrotation Yrotation Xrotation
				JOINT LeftAnkle
				{
					OFFSET 2.67286 -7.34045 0.00000
					CHANNELS 3 Zrotation Yrotation Xrotation
					JOINT LeftToe
					{
						OFFSET 0.22740 -0.62477 2.32102
						CHANNELS 3 Zrotation Yrotation Xrotation
						End Site
						{
							OFFSET 0.00000 -0.00000 1.20480
						}
					}
				}
			}
		}
	}
	JOINT RHipJoint
	{
		OFFSET 0 0 0
		CHANNELS 3 Zrotation Yrotation Xrotation
		JOINT RightHip
		{
			OFFSET -1.09666 -1.91611 0.81505
			CHANNELS 3 Zrotation Yrotation Xrotation
			JOINT RightKnee
			{
				OFFSET -2.51373 -6.90642 0.00000
				CHANNELS 3 Zrotation Yrotation Xrotation
				JOINT RightAnkle
				{
					OFFSET -2.70173 -7.42295 0.00000
					CHANNELS 3 Zrotation Yrotation Xrotation
					JOINT RightToe
					{
						OFFSET -0.22214 -0.61032 2.18267
						CHANNELS 3 Zrotation Yrotation Xrotation
						End Site
						{
							OFFSET -0.00000 -0.00000 1.13683
						}
					}
				}
			}
		}
	}
	JOINT lowerback
	{
		OFFSET 0 0 0
		CHANNELS 3 Zrotation Yrotation Xrotation
		JOINT Chest
		{
			OFFSET -0.00990 2.16804 -0.08389
			CHANNELS 3 Zrotation Yrotation Xrotation
			JOINT Chest2
			{
				OFFSET 0.06407 2.15456 0.07285
				CHANNELS 3 Zrotation Yrotation Xrotation
				JOINT lowerneck
				{
					OFFSET 0 0 0
					CHANNELS 3 Zrotation Yrotation Xrotation
					JOINT Neck
					{
						OFFSET -0.16931 1.61602 0.24462
						CHANNELS 3 Zrotation Yrotation Xrotation
						JOINT Head
						{
							OFFSET 0.21556 1.63376 -0.33896
							CHANNELS 3 Zrotation Yrotation Xrotation
							End Site
							{
								OFFSET 0.08444 1.69244 -0.14900
							}
						}
					}
				}
				JOINT LeftCollar
				{
					OFFSET 0 0 0
					CHANNELS 3 Zrotation Yrotation Xrotation
					JOINT LeftShoulder
					{
						OFFSET 2.89000 1.40150 -0.54392
CHANNELS 3 Zrotation Xrotation Yrotation
						JOINT LeftElbow
						{
OFFSET 0 -5.107550 0.000000
CHANNELS 3 Zrotation Xrotation Yrotation
							JOINT LeftWrist
							{
OFFSET 0 -3.362530 0.000000
CHANNELS 3 Zrotation Xrotation Yrotation
								JOINT lhand
								{
									OFFSET 0 0 0
CHANNELS 3 Zrotation Xrotation Yrotation
									JOINT LFingers
									{
OFFSET 0 -0.619090 0.000000
CHANNELS 3 Zrotation Xrotation Yrotation
										End Site
										{
OFFSET 0 -0.499120 0.000000
										}
									}
								}
								JOINT LThumb
								{
OFFSET 0 0.000000 0.000000
CHANNELS 3 Zrotation Xrotation Yrotation
									End Site
									{
OFFSET 0 -0.506750 0.506750
									}
								}
							}
						}
					}
				}
				JOINT RightCollar
				{
					OFFSET 0 0 0
					CHANNELS 3 Zrotation Yrotation Xrotation
					JOINT RightShoulder
					{
						OFFSET -2.65771 1.70968 -0.54312
CHANNELS 3 Zrotation Xrotation Yrotation
						JOINT RightElbow
						{
OFFSET 0 -5.273870 0.000000
CHANNELS 3 Zrotation Xrotation Yrotation
							JOINT RightWrist
							{
OFFSET 0 -3.401440 0.000000
CHANNELS 3 Zrotation Xrotation Yrotation
								JOINT rhand
								{
									OFFSET 0 0 0
CHANNELS 3 Zrotation Xrotation Yrotation
									JOINT RFingers
									{
OFFSET 0 -0.742820 0.000000
CHANNELS 3 Zrotation Xrotation Yrotation
										End Site
										{
OFFSET 0 -0.598880 0.000000
										}
									}
								}
								JOINT RThumb
								{
OFFSET 0 0.000000 0.000000
CHANNELS 3 Zrotation Xrotation Yrotation
									End Site
									{
OFFSET 0 -0.608030 0.608030
									}
								}
							}
						}
					}
				}
			}
		}
	}
}
MOTION
Frames: 8
Frame Time: 0.008333333333333333
-1.098950 17.520993 19.406968 1442.740067 6.870493 -3.521522 0.000000 0.000000 0.000000 -23.702864 3.428226 6.103860 1.794156 8.423410 24.007660 -0.763453 -23.038098 -10.082200 0.094173 -1.978364 -5.445810 0.000000 0.000000 0.000000 11.173342 2.932735 -33.725790 -5.681027 -14.108821 43.681646 0.002884 -3.727724 -5.215481 -1.515878 7.774980 -22.032806 -6.586288 -0.756003 13.621361 2.621877 -1.793514 2.533700 6.837725 -0.780359 -4.658953 -14.435538 -2.938862 -14.276722 6.209590 -2.164136 35.106220 4.782518 -1.998971 14.844432 0.000000 0.000000 0.000000 -0.153794 8.780972 -26.146380 25.240426 -36.448726 8.432315 15.894319 1.550376 -29.087003 0.000000 0.000000 0.000000 -7.125000 0.000000 0.000000 -18.070157 59.006596 7.116751 0.000000 0.000000 0.000000 -5.568895 11.533381 15.605638 -20.180149 -30.858778 -5.623457 -24.650390 -4.615750 -12.769595 0.000000 0.000000 0.000000 7.125000 0.000000 0.000000 1.820681 15.982691 1.249608
-2.339243 17.575405 23.443443 1434.720000 4.494254 -6.328978 0.000000 0.000000 0.000000 -8.491625 -8.817225 -13.689254 13.190731 18.849914 69.716722 -0.824561 -15.833404 6.107462 1.760539 -8.348308 -23.777146 0.000000 0.000000 0.000000 29.666333 0.533737 -12.252240 -3.295917 -11.159373 32.819269 -0.408055 -4.809090 -14.798352 -0.074014 -1.755665 4.830854 2.195241 1.527259 13.867396 4.642600 2.651894 2.023391 3.173750 1.305943 -5.763872 -15.645633 -4.280602 -16.451597 7.189580 -3.570487 27.380113 4.848657 -2.306169 12.220921 0.000000 0.000000 0.000000 -3.816472 13.004549 -13.233936 16.687490 -26.443887 3.947195 14.349232 8.538790 -28.358346 0.000000 0.000000 0.000000 -7.125000 0.000000 0.000000 -18.211194 58.163725 5.994378 0.000000 0.000000 0.000000 -7.852920 3.816382 23.183453 -22.768903 -33.835070 -7.009194 -24.269047 -6.173644 -9.614267 0.000000 0.000000 0.000000 7.125000 0.000000 0.000000 1.925133 19.456591 1.174612
-3.156836 17.430192 26.553782 1435.317446 -0.913743 -5.031197 0.000000 0.000000 0.000000 -17.329653 -4.671023 -23.820720 3.516058 11.486967 33.940392 -0.300299 -9.659774 3.642508 0.222381 -3.032409 -8.369162 0.000000 0.000000 0.000000 32.940656 -2.483964 -0.538583 -2.875107 -10.489856 30.578287 -1.173210 -1.588007 -21.086488 -0.477318 4.310070 -11.968104 2.778308 2.542921 11.740640 4.097133 3.972524 1.227915 2.090974 1.938348 -5.399747 -16.440020 -4.394181 -17.801396 8.385366 -3.543550 24.536860 5.347314 -2.117151 11.414688 0.000000 0.000000 0.000000 -3.375987 11.075804 -18.890121 21.790854 -32.739803 6.472391 17.034389 4.748882 -26.909435 0.000000 0.000000 0.000000 -7.125000 0.000000 0.000000 -14.517239 57.345637 4.453450 0.000000 0.000000 0.000000 -6.993471 -0.873096 27.576881 -21.683129 -32.617057 -6.414187 -24.622034 -6.350730 -9.760905 0.000000 0.000000 0.000000 7.125000 0.000000 0.000000 1.680085 19.266706 1.032183
-4.296429 17.416373 28.515684 1439.446394 -3.492752 -6.541656 0.000000 0.000000 0.000000 -18.674848 -0.676761 -15.304034 3.546821 11.531612 34.094539 -0.218418 -12.846203 -5.816300 0.260569 -3.230261 -8.925273 0.000000 0.000000 0.000000 16.228954 -11.354965 -16.561724 -11.635705 -18.232358 64.829297 -0.080594 11.334781 -9.096246 -1.334146 7.313907 -20.648884 -3.342847 2.895896 13.246804 2.421748 3.522733 0.134993 3.772391 1.888708 -7.660917 -15.327909 -3.504584 -20.370289 9.054259 -2.411104 25.440042 5.653380 -1.406988 12.074488 0.000000 0.000000 0.000000 -0.118335 9.518382 -17.965350 22.647659 -33.701246 6.941840 17.486357 3.270224 -26.537695 0.000000 0.000000 0.000000 -7.125000 0.000000 0.000000 -13.836950 57.077006 4.149239 0.000000 0.000000 0.000000 -2.325192 1.617538 24.317629 -15.452820 -24.773045 -3.413420 -24.776210 0.260572 -10.867199 0.000000 0.000000 0.000000 7.125000 0.000000 0.000000 1.624715 18.043828 1.041950
-7.055069 17.074476 28.181123 1434.029098 17.829573 -9.845246 0.000000 0.000000 0.000000 -6.195264 -14.433688 -17.526769 4.202528 12.425148 37.253130 -1.478670 -21.649018 2.193711 0.411026 -4.115420 -11.401622 0.000000 0.000000 0.000000 20.401416 11.041471 11.556951 -3.328698 -11.209034 32.988202 2.057802 32.537497 -11.211820 -1.804420 8.446056 -24.077407 -0.405231 1.547124 13.204764 3.580522 2.261733 0.834903 3.599518 1.182561 -6.696816 -10.458767 1.253901 -21.001375 1.113632 5.384246 28.247141 3.090603 1.432041 12.638608 0.000000 0.000000 0.000000 2.719412 6.141435 -26.506522 31.220089 -41.916445 12.216639 16.923129 0.119654 -33.818266 0.000000 0.000000 0.000000 -7.125000 0.000000 0.000000 -19.766188 63.928111 9.245179 0.000000 0.000000 0.000000 -2.744880 3.217706 22.602455 -15.091082 -24.272853 -3.263275 -26.211742 -4.166757 -11.932030 0.000000 0.000000 0.000000 7.125000 0.000000 0.000000 0.685466 16.726616 0.459183
-10.175742 17.493419 25.996083 1424.948164 55.609635 -16.539407 0.000000 0.000000 0.000000 -10.003143 -12.734992 -25.985558 6.183763 14.602909 45.712715 0.607079 -6.980620 -13.987799 0.513053 -4.590825 -12.745205 0.000000 0.000000 0.000000 29.701898 -1.507097 -2.293734 -2.631569 -10.073239 29.214240 -1.209802 1.955516 -20.240335 -0.537329 4.681469 -13.005082 3.745027 3.556835 14.278292 4.267970 5.633277 2.816354 1.349620 2.792967 -5.081313 -7.394098 4.746544 -20.630177 -5.152011 12.711995 32.978776 1.543427 3.971367 14.980293 0.000000 0.000000 0.000000 -1.637817 8.040026 -23.262074 22.149573 -33.143018 6.668595 14.888698 -1.254943 -31.875805 0.000000 0.000000 0.000000 -7.125000 0.000000 0.000000 -20.267977 61.599245 8.376488 0.000000 0.000000 0.000000 -7.594336 4.023779 21.186060 -15.874133 -25.349718 -3.591934 -25.981269 -2.255915 -10.783459 0.000000 0.000000 0.000000 7.125000 0.000000 0.000000 0.772576 18.017945 0.495806
-11.377156 17.640167 23.479174 1290.917830 81.419391 -148.162556 0.000000 0.000000 0.000000 -3.959384 9.139650 -16.612467 4.953892 13.331529 40.622961 0.786387 9.570615 -22.829911 0.159597 -2.573066 -7.092315 0.000000 0.000000 0.000000 19.589438 -11.260016 -16.275248 -3.422212 -11.349070 33.466312 -0.065186 -18.512227 -26.737572 -0.252601 3.229803 -8.919541 0.113311 2.751368 13.361184 2.388632 3.916237 2.071070 1.741843 1.991577 -5.459621 -7.390656 3.031418 -20.936073 -2.930045 10.211568 35.081583 2.108998 3.268578 15.878426 0.000000 0.000000 0.000000 2.094717 6.949596 -12.257436 17.769699 -27.861239 4.441080 18.291790 4.688604 -30.247491 0.000000 0.000000 0.000000 -7.125000 0.000000 0.000000 -15.298030 60.886181 6.003158 0.000000 0.000000 0.000000 -7.151553 2.936608 23.399554 -17.166491 -27.075124 -4.163720 -27.911598 -5.927734 -8.573929 0.000000 0.000000 0.000000 7.125000 0.000000 0.000000 -0.741175 20.317174 -0.398054
-11.803167 17.332747 18.909367 1255.560918 48.417480 -181.385633 0.000000 0.000000 0.000000 -24.333266 1.144076 -13.190330 4.484476 12.778526 38.545090 1.569923 -6.891447 -22.448691 0.742804 -5.504690 -15.354008 0.000000 0.000000 0.000000 7.564783 -4.573308 -11.419191 -5.596255 -14.025158 43.338652 -1.638916 -10.027155 -29.610192 -0.058558 -1.561342 4.294849 -1.401843 3.217149 12.388524 1.980372 4.317949 1.931594 2.136015 2.223165 -5.161364 -9.863306 -1.324921 -20.474515 -2.256332 5.623908 37.543845 2.084556 1.317887 17.141515 0.000000 0.000000 0.000000 -1.603908 6.848841 -22.991909 22.503792 -33.541746 6.862172 17.678072 4.841098 -30.277854 0.000000 0.000000 0.000000 -7.125000 0.000000 0.000000 -15.991694 60.766529 6.237678 0.000000 0.000000 0.000000 -8.207840 4.765146 14.882586 -22.540042 -33.581948 -6.882178 -25.928545 -9.739411 -11.443085 0.000000 0.000000 0.000000 7.125000 0.000000 0.000000 0.850425 17.296198 0.559233
